<?xml version="1.0" encoding="UTF-8" standalone="no"?>
<svg
   xmlns:dc="http://purl.org/dc/elements/1.1/"
   xmlns:cc="http://creativecommons.org/ns#"
   xmlns:rdf="http://www.w3.org/1999/02/22-rdf-syntax-ns#"
   xmlns:svg="http://www.w3.org/2000/svg"
   xmlns="http://www.w3.org/2000/svg"
   xmlns:xlink="http://www.w3.org/1999/xlink"
   xmlns:sodipodi="http://sodipodi.sourceforge.net/DTD/sodipodi-0.dtd"
   xmlns:inkscape="http://www.inkscape.org/namespaces/inkscape"
   inkscape:export-ydpi="600.04224"
   inkscape:export-xdpi="600.04224"
   inkscape:export-filename="/Users/lukashauser/bitmap.png"
   width="297mm"
   height="210mm"
   viewBox="0 0 297 210"
   version="1.1"
   id="svg8"
   inkscape:version="1.0 (4035a4f, 2020-05-01)"
   sodipodi:docname="exhybyt logo Square.svg">
  <defs
     id="defs2">
    <linearGradient
       inkscape:collect="always"
       xlink:href="#linearGradient275"
       id="linearGradient77-8-2-3-1"
       x1="31.812984"
       y1="52.295315"
       x2="31.812984"
       y2="33.120365"
       gradientUnits="userSpaceOnUse"
       gradientTransform="matrix(0.55693423,0,0,0.83391213,79.604012,60.23879)" />
    <linearGradient
       id="linearGradient275"
       inkscape:collect="always">
      <stop
         id="stop271"
         offset="0"
         style="stop-color:#808080;stop-opacity:1" />
      <stop
         id="stop273"
         offset="1"
         style="stop-color:#f9f9f9;stop-opacity:1" />
    </linearGradient>
    <linearGradient
       inkscape:collect="always"
       xlink:href="#linearGradient275"
       id="linearGradient77-8-2-3-6"
       x1="31.812984"
       y1="52.295315"
       x2="31.812984"
       y2="33.120365"
       gradientUnits="userSpaceOnUse"
       gradientTransform="matrix(0.55693423,0,0,0.83391213,130.79352,60.23879)" />
    <linearGradient
       gradientTransform="matrix(0.55693423,0,0,0.83391213,177.61048,60.2388)"
       gradientUnits="userSpaceOnUse"
       y2="33.120365"
       x2="31.812984"
       y1="52.295315"
       x1="31.812984"
       id="linearGradient77-8-2-3-6-3"
       xlink:href="#linearGradient275"
       inkscape:collect="always" />
  </defs>
  <sodipodi:namedview
     inkscape:pagecheckerboard="true"
     id="base"
     pagecolor="#ffffff"
     bordercolor="#666666"
     borderopacity="1.0"
     inkscape:pageopacity="0.0"
     inkscape:pageshadow="2"
     inkscape:zoom="1.3270788"
     inkscape:cx="561.25984"
     inkscape:cy="396.85039"
     inkscape:document-units="mm"
     inkscape:current-layer="layer1"
     inkscape:document-rotation="0"
     showgrid="false"
     inkscape:window-width="2060"
     inkscape:window-height="1256"
     inkscape:window-x="311"
     inkscape:window-y="63"
     inkscape:window-maximized="0" />
  <metadata
     id="metadata5">
    <rdf:RDF>
      <cc:Work
         rdf:about="">
        <dc:format>image/svg+xml</dc:format>
        <dc:type
           rdf:resource="http://purl.org/dc/dcmitype/StillImage" />
        <dc:title />
      </cc:Work>
    </rdf:RDF>
  </metadata>
  <g
     inkscape:label="Layer 1"
     inkscape:groupmode="layer"
     id="layer1">
    <rect
       y="0.52868652"
       x="44.028687"
       height="208.94263"
       width="208.94263"
       id="rect872"
       style="fill:#ffffff;stroke-width:2.04305;stroke-linecap:round;stroke-linejoin:round;paint-order:markers fill stroke" />
    <rect
       y="87.494858"
       x="186.34799"
       height="15.990224"
       width="19.4167"
       id="rect10-7-2-2-0-4"
       style="fill:url(#linearGradient77-8-2-3-6-3);fill-opacity:1;fill-rule:evenodd;stroke-width:0.180311" />
    <rect
       style="fill:url(#linearGradient77-8-2-3-6);fill-opacity:1;fill-rule:evenodd;stroke-width:0.180311"
       id="rect10-7-2-2-0"
       width="19.4167"
       height="15.990224"
       x="139.53099"
       y="87.494858" />
    <rect
       style="fill:url(#linearGradient77-8-2-3-1);fill-opacity:1;fill-rule:evenodd;stroke-width:0.180311"
       id="rect10-7-2-2-4"
       width="19.4167"
       height="15.990224"
       x="88.341522"
       y="87.494858" />
    <g
       transform="matrix(1.1421589,0,0,1.1421589,25.784852,36.609361)"
       aria-label="EXHYBYT"
       id="text129"
       style="font-style:normal;font-weight:normal;font-size:33.8667px;line-height:1.25;font-family:sans-serif;letter-spacing:0px;fill:#000000;fill-opacity:1;stroke:none;stroke-width:0.264583">
      <path
         d="m 37.566523,74.973251 h 12.121236 q 0.628386,0 1.025261,-0.363802 0.396875,-0.380339 0.396875,-0.975652 0,-0.595313 -0.396875,-0.959116 -0.396875,-0.380338 -1.025261,-0.380338 H 39.054806 v -8.202092 h 10.03764 q 0.628386,0 1.008725,-0.363802 0.396875,-0.380339 0.396875,-0.959116 0,-0.595313 -0.396875,-0.959115 -0.380339,-0.363803 -1.008725,-0.363803 h -10.03764 v -7.656387 h 10.632953 q 0.628386,0 1.025261,-0.363803 0.396875,-0.380338 0.396875,-0.975652 0,-0.595313 -0.396875,-0.959115 -0.396875,-0.380339 -1.025261,-0.380339 H 37.566523 q -0.677995,0 -1.091407,0.413412 -0.396876,0.413412 -0.396876,1.12448 v 20.786348 q 0,0.711069 0.396876,1.12448 0.413412,0.413412 1.091407,0.413412 z"
         style="font-style:normal;font-variant:normal;font-weight:normal;font-stretch:normal;font-size:33.8667px;font-family:'.SF NS Rounded';-inkscape-font-specification:'.SF NS Rounded';stroke-width:0.264583"
         id="path1446" />
      <path
         d="m 55.425914,75.204762 q 0.413412,0 0.677996,-0.181901 0.264583,-0.165365 0.595313,-0.628386 l 6.333469,-8.929696 h 0.115756 l 6.300396,8.979305 q 0.28112,0.413412 0.578777,0.578777 0.297657,0.181901 0.711068,0.181901 0.628386,0 1.074871,-0.396875 0.446485,-0.413412 0.446485,-0.975652 0,-0.248047 -0.08268,-0.479558 -0.08268,-0.248047 -0.231511,-0.463021 l -6.945319,-9.739984 v -0.09922 l 7.160293,-9.938421 q 0.181901,-0.248047 0.248047,-0.479557 0.08268,-0.231511 0.08268,-0.463022 0,-0.529167 -0.429949,-0.909506 -0.413411,-0.380339 -1.025261,-0.380339 -0.413412,0 -0.677995,0.181902 -0.264584,0.181901 -0.595314,0.628386 l -6.366542,9.012378 H 63.28074 l -6.250788,-8.946232 q -0.347266,-0.512631 -0.644922,-0.694532 -0.28112,-0.181902 -0.711069,-0.181902 -0.644922,0 -1.091407,0.413412 -0.446485,0.396876 -0.446485,0.975652 0,0.248047 0.06615,0.479558 0.08268,0.231511 0.264584,0.496094 l 6.879173,9.657301 v 0.115755 l -7.044538,9.954958 q -0.165365,0.231511 -0.248047,0.479558 -0.08268,0.23151 -0.08268,0.463021 0,0.529167 0.413411,0.909506 0.429949,0.380339 1.041798,0.380339 z"
         style="font-style:normal;font-variant:normal;font-weight:normal;font-stretch:normal;font-size:33.8667px;font-family:'.SF NS Rounded';-inkscape-font-specification:'.SF NS Rounded';stroke-width:0.264583"
         id="path1448" />
      <path
         d="m 77.783228,75.204762 q 0.677996,0 1.074871,-0.413412 0.413412,-0.413412 0.413412,-1.12448 v -9.558082 h 13.096888 v 9.558082 q 0,0.711068 0.396875,1.12448 0.413412,0.413412 1.091407,0.413412 0.677996,0 1.074871,-0.413412 0.413412,-0.413412 0.413412,-1.12448 V 52.4175 q 0,-0.711068 -0.413412,-1.12448 -0.396875,-0.413412 -1.074871,-0.413412 -0.677995,0 -1.091407,0.413412 -0.396875,0.413412 -0.396875,1.12448 v 9.012379 H 79.271511 V 52.4175 q 0,-0.711068 -0.413412,-1.12448 -0.396875,-0.413412 -1.074871,-0.413412 -0.677995,0 -1.091407,0.413412 -0.396875,0.413412 -0.396875,1.12448 v 21.24937 q 0,0.711068 0.396875,1.12448 0.413412,0.413412 1.091407,0.413412 z"
         style="font-style:normal;font-variant:normal;font-weight:normal;font-stretch:normal;font-size:33.8667px;font-family:'.SF NS Rounded';-inkscape-font-specification:'.SF NS Rounded';stroke-width:0.264583"
         id="path1450" />
      <path
         d="m 108.02844,75.204762 q 0.67799,0 1.07487,-0.413412 0.41341,-0.413412 0.41341,-1.12448 v -8.962769 l 7.72253,-11.558996 q 0.29766,-0.446484 0.29766,-0.959115 0,-0.56224 -0.41341,-0.926043 -0.41341,-0.380339 -1.02526,-0.380339 -0.44649,0 -0.74414,0.181902 -0.28112,0.165364 -0.56224,0.578776 l -6.71381,10.186468 h -0.0992 l -6.71381,-10.186468 q -0.26458,-0.413412 -0.56224,-0.578776 -0.29766,-0.181902 -0.744142,-0.181902 -0.611849,0 -1.025261,0.380339 -0.413412,0.363803 -0.413412,0.926043 0,0.512631 0.297657,0.959115 l 7.722538,11.558996 v 8.962769 q 0,0.711068 0.39687,1.12448 0.41341,0.413412 1.09141,0.413412 z"
         style="font-style:normal;font-variant:normal;font-weight:normal;font-stretch:normal;font-size:33.8667px;font-family:'.SF NS Rounded';-inkscape-font-specification:'.SF NS Rounded';stroke-width:0.264583"
         id="path1452" />
      <path
         d="m 122.23327,74.973251 h 7.5241 q 2.54661,0 4.34909,-0.79375 1.80248,-0.810288 2.76159,-2.29857 0.97565,-1.504819 0.97565,-3.604952 0,-1.587501 -0.66146,-2.827737 -0.64492,-1.256772 -1.85208,-2.050523 -1.19063,-0.79375 -2.8112,-0.992188 v -0.132292 q 1.15755,-0.214974 2.08359,-0.975652 0.92605,-0.760678 1.47175,-1.868621 0.56224,-1.124481 0.56224,-2.364716 0,-1.785939 -0.8599,-3.125394 -0.85989,-1.339454 -2.39779,-2.083596 -1.53789,-0.744141 -3.58841,-0.744141 h -7.55717 q -0.67799,0 -1.09141,0.413412 -0.39687,0.413412 -0.39687,1.12448 v 20.786348 q 0,0.711069 0.39687,1.12448 0.41342,0.413412 1.09141,0.413412 z m 1.48828,-13.576445 v -7.656388 h 5.39089 q 2.16628,0 3.34037,0.959116 1.17409,0.942579 1.17409,2.711982 0,1.934767 -1.4056,2.960029 -1.38906,1.025261 -4.0349,1.025261 z m 0,10.947146 V 63.95996 h 5.30821 q 2.86081,0 4.29949,1.058334 1.45521,1.041798 1.45521,3.108857 0,2.067059 -1.38907,3.14193 -1.38906,1.074871 -4.08451,1.074871 z"
         style="font-style:normal;font-variant:normal;font-weight:normal;font-stretch:normal;font-size:33.8667px;font-family:'.SF NS Rounded';-inkscape-font-specification:'.SF NS Rounded';stroke-width:0.264583"
         id="path1454" />
      <path
         d="m 149.30348,75.204762 q 0.67799,0 1.07487,-0.413412 0.41341,-0.413412 0.41341,-1.12448 v -8.962769 l 7.72253,-11.558996 q 0.29766,-0.446484 0.29766,-0.959115 0,-0.56224 -0.41341,-0.926043 -0.41341,-0.380339 -1.02526,-0.380339 -0.44649,0 -0.74414,0.181902 -0.28112,0.165364 -0.56224,0.578776 l -6.71381,10.186468 h -0.0992 l -6.71381,-10.186468 q -0.26458,-0.413412 -0.56224,-0.578776 -0.29766,-0.181902 -0.74414,-0.181902 -0.61185,0 -1.02526,0.380339 -0.41342,0.363803 -0.41342,0.926043 0,0.512631 0.29766,0.959115 l 7.72253,11.558996 v 8.962769 q 0,0.711068 0.39688,1.12448 0.41341,0.413412 1.09141,0.413412 z"
         style="font-style:normal;font-variant:normal;font-weight:normal;font-stretch:normal;font-size:33.8667px;font-family:'.SF NS Rounded';-inkscape-font-specification:'.SF NS Rounded';stroke-width:0.264583"
         id="path1456" />
      <path
         d="m 169.54412,75.204762 q 0.678,0 1.07487,-0.413412 0.41342,-0.413412 0.41342,-1.12448 V 53.790028 h 6.35 q 0.62839,0 1.02526,-0.363803 0.39688,-0.380338 0.39688,-0.975652 0,-0.595313 -0.39688,-0.959115 -0.39687,-0.380339 -1.02526,-0.380339 h -15.67657 q -0.62839,0 -1.02527,0.380339 -0.39687,0.363802 -0.39687,0.959115 0,0.595314 0.39687,0.975652 0.39688,0.363803 1.02527,0.363803 h 6.35 V 73.66687 q 0,0.711068 0.39688,1.12448 0.41341,0.413412 1.0914,0.413412 z"
         style="font-style:normal;font-variant:normal;font-weight:normal;font-stretch:normal;font-size:33.8667px;font-family:'.SF NS Rounded';-inkscape-font-specification:'.SF NS Rounded';stroke-width:0.264583"
         id="path1458" />
    </g>
  </g>
</svg>
